<mxfile host="app.diagrams.net" modified="2023-09-27T03:37:30.820Z" agent="Mozilla/5.0 (Windows NT 10.0; Win64; x64) AppleWebKit/537.36 (KHTML, like Gecko) Chrome/117.0.0.0 Safari/537.36" etag="7TPJK0xSMrrCAYQqPhuA" version="21.8.2" type="github">
  <diagram name="Halaman-1" id="T0tzzWoYna29C0a_tDkZ">
    <mxGraphModel dx="794" dy="2794" grid="1" gridSize="10" guides="1" tooltips="1" connect="1" arrows="1" fold="1" page="1" pageScale="1" pageWidth="827" pageHeight="1169" math="0" shadow="0">
      <root>
        <mxCell id="0" />
        <mxCell id="1" parent="0" />
        <mxCell id="cTc1Az8b2rY6Yl-SicXl-9" value="" style="edgeStyle=orthogonalEdgeStyle;rounded=0;orthogonalLoop=1;jettySize=auto;html=1;" edge="1" parent="1" source="cTc1Az8b2rY6Yl-SicXl-1">
          <mxGeometry relative="1" as="geometry">
            <mxPoint x="460" y="-1760" as="targetPoint" />
          </mxGeometry>
        </mxCell>
        <mxCell id="cTc1Az8b2rY6Yl-SicXl-1" value="Start" style="ellipse;whiteSpace=wrap;html=1;" vertex="1" parent="1">
          <mxGeometry x="400" y="-1880" width="120" height="80" as="geometry" />
        </mxCell>
        <mxCell id="cTc1Az8b2rY6Yl-SicXl-32" value="" style="edgeStyle=orthogonalEdgeStyle;rounded=0;orthogonalLoop=1;jettySize=auto;html=1;" edge="1" parent="1" source="cTc1Az8b2rY6Yl-SicXl-5" target="cTc1Az8b2rY6Yl-SicXl-31">
          <mxGeometry relative="1" as="geometry" />
        </mxCell>
        <mxCell id="cTc1Az8b2rY6Yl-SicXl-5" value="Berwudhu" style="shape=parallelogram;perimeter=parallelogramPerimeter;whiteSpace=wrap;html=1;fixedSize=1;" vertex="1" parent="1">
          <mxGeometry x="400" y="-1120" width="120" height="60" as="geometry" />
        </mxCell>
        <mxCell id="cTc1Az8b2rY6Yl-SicXl-60" value="" style="edgeStyle=orthogonalEdgeStyle;rounded=0;orthogonalLoop=1;jettySize=auto;html=1;" edge="1" parent="1" source="cTc1Az8b2rY6Yl-SicXl-14" target="cTc1Az8b2rY6Yl-SicXl-59">
          <mxGeometry relative="1" as="geometry" />
        </mxCell>
        <mxCell id="cTc1Az8b2rY6Yl-SicXl-14" value="Siapkan termos, botol berisi air, panci, baju, idcard dan tas" style="shape=hexagon;perimeter=hexagonPerimeter2;whiteSpace=wrap;html=1;fixedSize=1;" vertex="1" parent="1">
          <mxGeometry x="397.5" y="-1760" width="125" height="80" as="geometry" />
        </mxCell>
        <mxCell id="cTc1Az8b2rY6Yl-SicXl-26" value="" style="edgeStyle=orthogonalEdgeStyle;rounded=0;orthogonalLoop=1;jettySize=auto;html=1;" edge="1" parent="1" source="cTc1Az8b2rY6Yl-SicXl-15" target="cTc1Az8b2rY6Yl-SicXl-17">
          <mxGeometry relative="1" as="geometry" />
        </mxCell>
        <mxCell id="cTc1Az8b2rY6Yl-SicXl-15" value="Masukkan air ke dalam panci" style="shape=parallelogram;perimeter=parallelogramPerimeter;whiteSpace=wrap;html=1;fixedSize=1;" vertex="1" parent="1">
          <mxGeometry x="400" y="-1480" width="120" height="60" as="geometry" />
        </mxCell>
        <mxCell id="cTc1Az8b2rY6Yl-SicXl-22" value="" style="edgeStyle=orthogonalEdgeStyle;rounded=0;orthogonalLoop=1;jettySize=auto;html=1;" edge="1" parent="1" source="cTc1Az8b2rY6Yl-SicXl-17" target="cTc1Az8b2rY6Yl-SicXl-21">
          <mxGeometry relative="1" as="geometry" />
        </mxCell>
        <mxCell id="cTc1Az8b2rY6Yl-SicXl-17" value="Masak Air" style="whiteSpace=wrap;html=1;" vertex="1" parent="1">
          <mxGeometry x="400" y="-1390" width="120" height="60" as="geometry" />
        </mxCell>
        <mxCell id="cTc1Az8b2rY6Yl-SicXl-24" value="" style="edgeStyle=orthogonalEdgeStyle;rounded=0;orthogonalLoop=1;jettySize=auto;html=1;" edge="1" parent="1" source="cTc1Az8b2rY6Yl-SicXl-21" target="cTc1Az8b2rY6Yl-SicXl-23">
          <mxGeometry relative="1" as="geometry" />
        </mxCell>
        <mxCell id="cTc1Az8b2rY6Yl-SicXl-21" value="&lt;font style=&quot;font-size: 12px;&quot;&gt;Tuang air mendidih ke dalam termos&lt;/font&gt;" style="shape=parallelogram;perimeter=parallelogramPerimeter;whiteSpace=wrap;html=1;fixedSize=1;" vertex="1" parent="1">
          <mxGeometry x="387.5" y="-1300" width="145" height="60" as="geometry" />
        </mxCell>
        <mxCell id="cTc1Az8b2rY6Yl-SicXl-30" value="" style="edgeStyle=orthogonalEdgeStyle;rounded=0;orthogonalLoop=1;jettySize=auto;html=1;" edge="1" parent="1" source="cTc1Az8b2rY6Yl-SicXl-23" target="cTc1Az8b2rY6Yl-SicXl-5">
          <mxGeometry relative="1" as="geometry" />
        </mxCell>
        <mxCell id="cTc1Az8b2rY6Yl-SicXl-23" value="Bawa termos berisi air panas, botol, dan panci ke kamar" style="whiteSpace=wrap;html=1;" vertex="1" parent="1">
          <mxGeometry x="400" y="-1210" width="120" height="60" as="geometry" />
        </mxCell>
        <mxCell id="cTc1Az8b2rY6Yl-SicXl-29" value="" style="edgeStyle=orthogonalEdgeStyle;rounded=0;orthogonalLoop=1;jettySize=auto;html=1;" edge="1" parent="1" source="cTc1Az8b2rY6Yl-SicXl-27" target="cTc1Az8b2rY6Yl-SicXl-15">
          <mxGeometry relative="1" as="geometry" />
        </mxCell>
        <mxCell id="cTc1Az8b2rY6Yl-SicXl-27" value="Bawa termos, botol berisi air, dan panci ke dapur" style="whiteSpace=wrap;html=1;" vertex="1" parent="1">
          <mxGeometry x="400" y="-1560" width="120" height="60" as="geometry" />
        </mxCell>
        <mxCell id="cTc1Az8b2rY6Yl-SicXl-34" value="" style="edgeStyle=orthogonalEdgeStyle;rounded=0;orthogonalLoop=1;jettySize=auto;html=1;" edge="1" parent="1" source="cTc1Az8b2rY6Yl-SicXl-31">
          <mxGeometry relative="1" as="geometry">
            <mxPoint x="460" y="-940" as="targetPoint" />
          </mxGeometry>
        </mxCell>
        <mxCell id="cTc1Az8b2rY6Yl-SicXl-31" value="Sholat subuh" style="whiteSpace=wrap;html=1;" vertex="1" parent="1">
          <mxGeometry x="400" y="-1030" width="120" height="60" as="geometry" />
        </mxCell>
        <mxCell id="cTc1Az8b2rY6Yl-SicXl-40" value="" style="edgeStyle=orthogonalEdgeStyle;rounded=0;orthogonalLoop=1;jettySize=auto;html=1;" edge="1" parent="1" source="cTc1Az8b2rY6Yl-SicXl-37">
          <mxGeometry relative="1" as="geometry">
            <mxPoint x="460" y="-850" as="targetPoint" />
          </mxGeometry>
        </mxCell>
        <mxCell id="cTc1Az8b2rY6Yl-SicXl-37" value="Mandi" style="rounded=1;whiteSpace=wrap;html=1;" vertex="1" parent="1">
          <mxGeometry x="400" y="-940" width="120" height="60" as="geometry" />
        </mxCell>
        <mxCell id="cTc1Az8b2rY6Yl-SicXl-63" value="" style="edgeStyle=orthogonalEdgeStyle;rounded=0;orthogonalLoop=1;jettySize=auto;html=1;" edge="1" parent="1" source="cTc1Az8b2rY6Yl-SicXl-45" target="cTc1Az8b2rY6Yl-SicXl-48">
          <mxGeometry relative="1" as="geometry" />
        </mxCell>
        <mxCell id="cTc1Az8b2rY6Yl-SicXl-45" value="Kunci pintu dari luar" style="rounded=0;whiteSpace=wrap;html=1;" vertex="1" parent="1">
          <mxGeometry x="398.75" y="-750" width="120" height="60" as="geometry" />
        </mxCell>
        <mxCell id="cTc1Az8b2rY6Yl-SicXl-50" value="True" style="edgeStyle=orthogonalEdgeStyle;rounded=0;orthogonalLoop=1;jettySize=auto;html=1;" edge="1" parent="1" source="cTc1Az8b2rY6Yl-SicXl-48" target="cTc1Az8b2rY6Yl-SicXl-49">
          <mxGeometry relative="1" as="geometry" />
        </mxCell>
        <mxCell id="cTc1Az8b2rY6Yl-SicXl-52" value="False" style="edgeStyle=orthogonalEdgeStyle;rounded=0;orthogonalLoop=1;jettySize=auto;html=1;" edge="1" parent="1" source="cTc1Az8b2rY6Yl-SicXl-48" target="cTc1Az8b2rY6Yl-SicXl-51">
          <mxGeometry relative="1" as="geometry" />
        </mxCell>
        <mxCell id="cTc1Az8b2rY6Yl-SicXl-48" value="1 jam sebelum kuliah dimulai" style="rhombus;whiteSpace=wrap;html=1;" vertex="1" parent="1">
          <mxGeometry x="408.75" y="-650" width="100" height="100" as="geometry" />
        </mxCell>
        <mxCell id="cTc1Az8b2rY6Yl-SicXl-49" value="Sarapan di warung" style="whiteSpace=wrap;html=1;" vertex="1" parent="1">
          <mxGeometry x="560" y="-630" width="120" height="60" as="geometry" />
        </mxCell>
        <mxCell id="cTc1Az8b2rY6Yl-SicXl-58" value="" style="edgeStyle=orthogonalEdgeStyle;rounded=0;orthogonalLoop=1;jettySize=auto;html=1;" edge="1" parent="1" source="cTc1Az8b2rY6Yl-SicXl-51" target="cTc1Az8b2rY6Yl-SicXl-57">
          <mxGeometry relative="1" as="geometry" />
        </mxCell>
        <mxCell id="cTc1Az8b2rY6Yl-SicXl-51" value="Jalan kaki menuju kuliah" style="whiteSpace=wrap;html=1;" vertex="1" parent="1">
          <mxGeometry x="398.75" y="-490" width="120" height="60" as="geometry" />
        </mxCell>
        <mxCell id="cTc1Az8b2rY6Yl-SicXl-53" value="End" style="ellipse;whiteSpace=wrap;html=1;" vertex="1" parent="1">
          <mxGeometry x="398.75" y="-290" width="120" height="80" as="geometry" />
        </mxCell>
        <mxCell id="cTc1Az8b2rY6Yl-SicXl-55" value="" style="endArrow=classic;html=1;rounded=0;exitX=0;exitY=1;exitDx=0;exitDy=0;entryX=1;entryY=0;entryDx=0;entryDy=0;" edge="1" parent="1" source="cTc1Az8b2rY6Yl-SicXl-49" target="cTc1Az8b2rY6Yl-SicXl-51">
          <mxGeometry width="50" height="50" relative="1" as="geometry">
            <mxPoint x="560" y="-420" as="sourcePoint" />
            <mxPoint x="510" y="-430" as="targetPoint" />
          </mxGeometry>
        </mxCell>
        <mxCell id="cTc1Az8b2rY6Yl-SicXl-67" value="" style="edgeStyle=orthogonalEdgeStyle;rounded=0;orthogonalLoop=1;jettySize=auto;html=1;" edge="1" parent="1" source="cTc1Az8b2rY6Yl-SicXl-57" target="cTc1Az8b2rY6Yl-SicXl-53">
          <mxGeometry relative="1" as="geometry" />
        </mxCell>
        <mxCell id="cTc1Az8b2rY6Yl-SicXl-57" value="Sampai di kuliah" style="shape=parallelogram;perimeter=parallelogramPerimeter;whiteSpace=wrap;html=1;fixedSize=1;" vertex="1" parent="1">
          <mxGeometry x="398.75" y="-390" width="120" height="60" as="geometry" />
        </mxCell>
        <mxCell id="cTc1Az8b2rY6Yl-SicXl-61" value="" style="edgeStyle=orthogonalEdgeStyle;rounded=0;orthogonalLoop=1;jettySize=auto;html=1;" edge="1" parent="1" source="cTc1Az8b2rY6Yl-SicXl-59" target="cTc1Az8b2rY6Yl-SicXl-27">
          <mxGeometry relative="1" as="geometry" />
        </mxCell>
        <mxCell id="cTc1Az8b2rY6Yl-SicXl-59" value="Bangun tidur" style="shape=parallelogram;perimeter=parallelogramPerimeter;whiteSpace=wrap;html=1;fixedSize=1;" vertex="1" parent="1">
          <mxGeometry x="400" y="-1650" width="120" height="60" as="geometry" />
        </mxCell>
        <mxCell id="cTc1Az8b2rY6Yl-SicXl-64" value="" style="edgeStyle=orthogonalEdgeStyle;rounded=0;orthogonalLoop=1;jettySize=auto;html=1;" edge="1" parent="1" source="cTc1Az8b2rY6Yl-SicXl-62" target="cTc1Az8b2rY6Yl-SicXl-45">
          <mxGeometry relative="1" as="geometry" />
        </mxCell>
        <mxCell id="cTc1Az8b2rY6Yl-SicXl-62" value="Pakai baju, idcard, dan tas" style="shape=parallelogram;perimeter=parallelogramPerimeter;whiteSpace=wrap;html=1;fixedSize=1;" vertex="1" parent="1">
          <mxGeometry x="400" y="-850" width="117.5" height="60" as="geometry" />
        </mxCell>
      </root>
    </mxGraphModel>
  </diagram>
</mxfile>
